<?xml version="1.0" encoding="utf-8"?>
<svg xmlns="http://www.w3.org/2000/svg" xmlns:xlink="http://www.w3.org/1999/xlink">
	
	<svg:style xmlns:svg="http://www.w3.org/2000/svg" type="text/css">
		.i { display: none; }
		.i:target { display: block; }
	</svg:style>

	<svg:svg class="i" id="email" width="100%" height="100%" viewBox="0 0 458 512" xmlns:svg="http://www.w3.org/2000/svg">
		<path class="fill" fill="#F0C22D" d="M429.496,106.761L257.942,7.713c-17.816-10.284-39.771-10.284-57.586,0L28.792,106.761
			C10.977,117.047,0,136.059,0,156.63v198.097c0,20.579,10.977,39.591,28.792,49.876l171.563,99.048
			c8.908,5.137,18.85,7.711,28.793,7.711c9.942,0,19.884-2.574,28.793-7.711l171.554-99.048
			c17.826-10.285,28.793-29.297,28.793-49.876V156.63C458.289,136.059,447.322,117.047,429.496,106.761z"/>
		<path class="icon" opacity="0.75" fill="#FFFFFF" d="M345.559,313.318c0,5.11-1.439,9.844-3.738,14.01l-73.583-82.33l72.782-63.683
			c2.834,4.494,4.539,9.767,4.539,15.475V313.318z M229.033,259.95l101.28-88.618c-4.157-2.282-8.836-3.672-13.884-3.672H141.636
			c-5.057,0-9.736,1.39-13.875,3.672L229.033,259.95z M257.271,254.585l-23.444,20.526c-1.372,1.197-3.082,1.791-4.795,1.791
			c-1.714,0-3.425-0.594-4.796-1.791l-23.448-20.526l-74.512,83.388c4.462,2.798,9.696,4.479,15.36,4.479h174.793
			c5.659,0,10.892-1.682,15.358-4.479L257.271,254.585z M117.04,181.315c-2.831,4.494-4.54,9.767-4.54,15.475v116.528
			c0,5.11,1.432,9.844,3.744,14.01l73.576-82.344L117.04,181.315z"/>
		<path class="shadow" opacity="0.1" d="M430.378,390.591c9.969-5.758,16.164-16.475,16.164-27.99V148.764
			c0-4.84-1.15-9.52-3.162-13.771L260.111,240.804c-19.234,11.104-31.079,31.628-31.079,53.835v207.203
			c5.659,0,11.255-1.494,16.159-4.338L430.378,390.591z"/>
		<path class="highlight" opacity="0.2" fill="#FFFFFF" d="M197.948,240.804c19.237,11.104,31.084,31.628,31.084,53.835
			c0-22.207,11.845-42.731,31.079-53.835L443.38,134.993c-2.772-5.853-7.221-10.887-12.992-14.222L245.192,13.854
			c-4.904-2.829-10.496-4.333-16.159-4.333c-5.669,0-11.257,1.503-16.166,4.333L27.676,120.771
			c-5.776,3.335-10.226,8.369-12.997,14.222L197.948,240.804z"/>
	</svg:svg>

	<svg:svg class="i" id="facebook" width="100%" height="100%" viewBox="0 0 458 512" xmlns:svg="http://www.w3.org/2000/svg">
		<path class="fill" fill="#3B5999" d="M429.496,106.761L257.942,7.713c-17.816-10.284-39.771-10.284-57.586,0L28.792,106.761
			C10.977,117.047,0,136.059,0,156.634v198.098c0,20.577,10.977,39.59,28.792,49.875l171.563,99.048
			c8.908,5.139,18.85,7.712,28.793,7.712c9.942,0,19.884-2.573,28.793-7.712l171.554-99.048
			c17.826-10.285,28.793-29.298,28.793-49.875V156.634C458.289,136.059,447.322,117.047,429.496,106.761z"/>
		<path class="icon" opacity="0.75" fill="#FFFFFF" d="M283.182,215.844h-35.219v-23.098c0-8.675,5.742-10.698,9.791-10.698
			c4.04,0,24.853,0,24.853,0v-38.134l-34.227-0.136c-38,0-46.646,28.444-46.646,46.646v25.419h-21.973v39.292h21.973
			c0,50.435,0,111.196,0,111.196h46.23c0,0,0-61.366,0-111.196h31.178L283.182,215.844z"/>
		<path class="shadow" opacity="0.1" d="M430.378,390.597c9.969-5.761,16.164-16.48,16.164-27.992V148.764
			c0-4.84-1.15-9.514-3.162-13.766l-183.269,105.81c-19.234,11.104-31.079,31.624-31.079,53.831v207.208
			c5.659,0,11.255-1.499,16.159-4.337L430.378,390.597z"/>
		<path class="highlight" opacity="0.2" fill="#FFFFFF" d="M197.948,240.808c19.237,11.104,31.084,31.624,31.084,53.831
			c0-22.207,11.845-42.728,31.079-53.831l183.269-105.81c-2.772-5.857-7.221-10.888-12.992-14.227L245.192,13.858
			c-4.904-2.833-10.496-4.337-16.159-4.337c-5.669,0-11.257,1.503-16.166,4.337L27.676,120.771
			c-5.776,3.339-10.226,8.369-12.997,14.227L197.948,240.808z"/>
	</svg:svg>

	<svg:svg class="i" id="github" width="100%" height="100%" viewBox="0 0 458 512" xmlns:svg="http://www.w3.org/2000/svg">
		<path class="fill" fill="#333333" d="M429.496,106.761L257.934,7.713c-17.815-10.284-39.772-10.284-57.587,0L28.792,106.761
			C10.972,117.047,0,136.059,0,156.63v198.097c0,20.579,10.972,39.591,28.792,49.876l171.554,99.048
			c8.909,5.137,18.851,7.711,28.794,7.711c9.943,0,19.885-2.574,28.793-7.711l171.562-99.048
			c17.815-10.285,28.793-29.297,28.793-49.876V156.63C458.289,136.059,447.312,117.047,429.496,106.761z"/>
		<path class="icon" opacity="0.75" fill="#FFFFFF" d="M274.241,356.328c0-4.743,0.164-20.263,0.164-39.537
			c0-13.433-4.603-22.207-9.773-26.67c32.078-3.572,65.778-15.747,65.778-71.083c0-15.73-5.586-28.579-14.824-38.665
			c1.496-3.626,6.431-18.284-1.411-38.125c0,0-12.079-3.869-39.579,14.767c-11.512-3.187-23.843-4.788-36.088-4.851
			c-12.237,0.062-24.561,1.664-36.055,4.851c-27.529-18.635-39.622-14.767-39.622-14.767c-7.825,19.84-2.893,34.499-1.4,38.125
			c-9.212,10.086-14.841,22.935-14.841,38.665c0,55.202,33.639,67.555,65.635,71.191c-4.12,3.599-7.851,9.96-9.146,19.264
			c-8.219,3.681-29.077,10.052-41.921-11.966c0,0-7.616-13.84-22.084-14.855c0,0-14.055-0.182-0.981,8.763
			c0,0,9.438,4.427,15.994,21.073c0,0,8.458,25.716,48.53,16.997c0.067,12.04,0.198,23.387,0.198,26.823
			c0,2.978-1.629,6.343-5.776,7.027c13.136,3.949,27.051,6.091,41.472,6.091c14.414,0,28.32-2.142,41.448-6.083
			C275.82,362.681,274.241,359.306,274.241,356.328z M149.013,289.339c-0.314,0.72-1.443,0.934-2.465,0.439
			c-1.044-0.467-1.633-1.447-1.292-2.157c0.306-0.739,1.436-0.947,2.479-0.451C148.784,287.637,149.378,288.627,149.013,289.339z
			 M154.854,295.854c-0.688,0.629-2.035,0.333-2.942-0.667c-0.946-1.007-1.122-2.349-0.424-2.997
			c0.712-0.637,2.011-0.341,2.956,0.667C155.384,293.874,155.573,295.204,154.854,295.854z M160.531,304.14
			c-0.882,0.621-2.326,0.045-3.216-1.233c-0.887-1.285-0.887-2.825,0.018-3.437c0.895-0.61,2.316-0.062,3.221,1.204
			C161.43,301.98,161.43,303.518,160.531,304.14z M168.313,312.167c-0.791,0.863-2.475,0.628-3.702-0.559
			c-1.259-1.161-1.61-2.808-0.823-3.681c0.8-0.873,2.492-0.63,3.734,0.55C168.773,309.637,169.152,311.304,168.313,312.167z
			 M179.048,316.817c-0.351,1.126-1.97,1.638-3.604,1.16c-1.627-0.494-2.69-1.816-2.366-2.959c0.342-1.133,1.966-1.665,3.613-1.152
			C178.315,314.353,179.386,315.667,179.048,316.817z M187.782,319.876c-1.72,0.038-3.119-0.927-3.136-2.096
			c0-1.204,1.354-2.177,3.073-2.204c1.713-0.035,3.117,0.926,3.117,2.105C190.876,318.868,189.495,319.851,187.782,319.876z
			 M199.119,318.473c-1.67,0.308-3.217-0.404-3.435-1.556c-0.201-1.188,1.01-2.376,2.678-2.69c1.706-0.287,3.226,0.405,3.447,1.584
			C202.01,316.972,200.819,318.158,199.119,318.473z"/>
		<path class="shadow" opacity="0.1" d="M430.378,390.591c9.969-5.758,16.159-16.483,16.159-27.99V148.764
			c0-4.84-1.15-9.52-3.162-13.775L260.111,240.804c-19.238,11.104-31.089,31.618-31.089,53.825v207.213
			c5.666,0,11.261-1.502,16.166-4.338L430.378,390.591z"/>
		<path class="highlight" opacity="0.2" fill="#FFFFFF" d="M197.944,240.804c19.237,11.104,31.078,31.618,31.078,53.825
			c0-22.207,11.851-42.722,31.089-53.825l183.264-105.815c-2.768-5.853-7.221-10.888-12.997-14.218L245.188,13.85
			c-4.904-2.83-10.496-4.328-16.166-4.328c-5.664,0-11.255,1.499-16.159,4.328L27.672,120.771
			c-5.772,3.33-10.226,8.365-12.998,14.218L197.944,240.804z"/>
	</svg:svg>

	<svg:svg class="i" id="pinterest" width="100%" height="100%" viewBox="0 0 458 512" xmlns:svg="http://www.w3.org/2000/svg">
		<path class="fill" fill="#CB2128" d="M429.496,106.761L257.942,7.713c-17.816-10.284-39.771-10.284-57.586,0L28.792,106.761
			C10.977,117.047,0,136.059,0,156.63v198.097c0,20.579,10.977,39.591,28.792,49.876l171.563,99.048
			c8.908,5.137,18.85,7.711,28.793,7.711c9.942,0,19.884-2.574,28.793-7.711l171.554-99.048
			c17.826-10.285,28.793-29.297,28.793-49.876V156.63C458.289,136.059,447.322,117.047,429.496,106.761z"/>
		<path class="icon" opacity="0.75" fill="#FFFFFF" d="M234.408,140.377c-62.588,0-94.154,44.873-94.154,82.295
			c0,22.657,8.583,42.813,26.976,50.322c3.022,1.238,5.722,0.045,6.596-3.293c0.611-2.31,2.05-8.138,2.698-10.577
			c0.874-3.297,0.54-4.455-1.899-7.337c-5.308-6.255-8.7-14.357-8.7-25.839c0-33.287,24.915-63.087,64.866-63.087
			c35.371,0,54.815,21.617,54.815,50.477c0,37.986-16.817,70.048-41.77,70.048c-13.783,0-24.096-11.396-20.793-25.378
			c3.959-16.686,11.634-34.696,11.634-46.749c0-10.78-5.795-19.774-17.77-19.774c-14.082,0-25.401,14.578-25.401,34.1
			c0,12.434,4.202,20.848,4.202,20.848s-14.423,61.082-16.951,71.784c-5.031,21.307-0.757,47.419-0.388,50.057
			c0.207,1.565,2.213,1.938,3.132,0.76c1.295-1.697,18.076-22.414,23.78-43.112c1.611-5.863,9.26-36.214,9.26-36.214
			c4.579,8.737,17.959,16.418,32.185,16.418c42.345,0,71.075-38.601,71.075-90.277C317.801,176.77,284.708,140.377,234.408,140.377z"
			/>
		<path class="shadow" opacity="0.1" d="M430.378,390.591c9.969-5.758,16.164-16.479,16.164-27.99V148.764
			c0-4.84-1.15-9.52-3.162-13.775L260.111,240.804c-19.234,11.104-31.079,31.624-31.079,53.829v207.209
			c5.659,0,11.255-1.499,16.159-4.338L430.378,390.591z"/>
		<path class="highlight" opacity="0.2" fill="#FFFFFF" d="M197.948,240.804c19.237,11.104,31.084,31.624,31.084,53.829
			c0-22.205,11.845-42.726,31.079-53.829L443.38,134.989c-2.772-5.853-7.221-10.888-12.992-14.218L245.192,13.85
			c-4.904-2.83-10.496-4.328-16.159-4.328c-5.669,0-11.257,1.499-16.166,4.328L27.676,120.771
			c-5.776,3.33-10.226,8.365-12.997,14.218L197.948,240.804z"/>
	</svg:svg>

	<svg:svg class="i" id="twitter" width="100%" height="100%" viewBox="0 0 458 512" xmlns:svg="http://www.w3.org/2000/svg">
		<path class="fill" fill="#27AAE1" d="M429.496,106.761L257.942,7.713c-17.816-10.284-39.771-10.284-57.586,0L28.792,106.761
			C10.977,117.047,0,136.059,0,156.634v198.098c0,20.577,10.977,39.59,28.792,49.875l171.563,99.048
			c8.908,5.139,18.85,7.712,28.793,7.712c9.942,0,19.884-2.573,28.793-7.712l171.554-99.048
			c17.826-10.285,28.793-29.298,28.793-49.875V156.634C458.289,136.059,447.322,117.047,429.496,106.761z"/>
		<path class="icon" opacity="0.75" fill="#FFFFFF" d="M344.951,184.671c-8.349,3.707-17.32,6.207-26.746,7.329
			c9.615-5.76,16.997-14.884,20.477-25.763c-8.998,5.34-18.96,9.215-29.569,11.307c-8.494-9.053-20.595-14.708-33.983-14.708
			c-25.717,0-46.565,20.848-46.565,46.559c0,3.654,0.415,7.203,1.206,10.609c-38.695-1.935-73.01-20.47-95.971-48.642
			c-4.005,6.874-6.303,14.868-6.303,23.403c0,16.155,8.219,30.404,20.713,38.759c-7.631-0.248-14.814-2.337-21.087-5.827
			c-0.009,0.193-0.009,0.386-0.009,0.59c0,22.552,16.052,41.377,37.355,45.654c-3.91,1.062-8.021,1.633-12.268,1.633
			c-3.006,0-5.921-0.286-8.765-0.837c5.929,18.5,23.124,31.962,43.496,32.339c-15.936,12.489-36.01,19.932-57.83,19.932
			c-3.751,0-7.459-0.225-11.103-0.648c20.61,13.209,45.079,20.921,71.375,20.921c85.646,0,132.478-70.953,132.478-132.486
			c0-2.016-0.041-4.027-0.132-6.019C330.817,202.207,338.713,194.01,344.951,184.671z"/>
		<path class="shadow" opacity="0.1" d="M430.378,390.597c9.969-5.761,16.169-16.48,16.169-27.992V148.764
			c0-4.84-1.152-9.514-3.167-13.766l-183.269,105.81c-19.228,11.104-31.079,31.624-31.079,53.831v207.208
			c5.659,0,11.255-1.499,16.159-4.337L430.378,390.597z"/>
		<path class="highlight" opacity="0.2" fill="#FFFFFF" d="M197.953,240.808c19.238,11.104,31.08,31.624,31.08,53.831
			c0-22.207,11.851-42.728,31.079-53.831l183.269-105.81c-2.772-5.857-7.218-10.888-12.992-14.227L245.192,13.858
			c-4.904-2.833-10.492-4.337-16.159-4.337c-5.669,0-11.257,1.503-16.162,4.337L27.676,120.771
			c-5.776,3.339-10.22,8.369-12.992,14.227L197.953,240.808z"/>
	</svg:svg>

	<svg:svg class="i" id="wordpress" width="100%" height="100%" viewBox="0 0 458 512" xmlns:svg="http://www.w3.org/2000/svg">
		<path class="fill" fill="#21759C" d="M429.496,106.761L257.934,7.713c-17.815-10.284-39.772-10.284-57.587,0L28.792,106.761
			C10.977,117.047,0,136.055,0,156.634v198.098c0,20.567,10.977,39.58,28.792,49.865l171.554,99.05
			c8.909,5.146,18.851,7.72,28.794,7.72c9.943,0,19.885-2.573,28.793-7.72l171.562-99.05c17.815-10.285,28.793-29.298,28.793-49.865
			V156.634C458.289,136.055,447.312,117.047,429.496,106.761z"/>
		<path class="icon" opacity="0.75" fill="#FFFFFF" d="M123.95,197.291c19.759-36.852,59.381-60.947,105.073-60.947
			c29.576,0,56.603,12.601,77.356,30.39c-5.93-1.148-12.405,0.144-18.923,3.875c-15.27,8.753-20.26,33.539-0.463,45.983
			c12.361,7.724,16.756,27.066,16.345,38.879c-0.41,11.837-28.736,66.175-28.736,66.175l-27.584-94.716c0,0-0.952-6.642-0.952-8.558
			c0-2.416,0.796-5.375,2.289-7.067c1.028-1.126,2.595-3.482,4.451-3.482h13.07v-10.532h-71.071v10.532h2.2
			c2.331,0,4.606,3.131,6.803,5.375c2.591,2.678,5.862,12.76,9.816,23.221l10.334,34.042l-22.27,51.473l-24.438-102.869
			c0,0,0.725-7.049,2.199-8.246c0.963-0.822,2.443-2.995,4.153-2.995h0.67v-10.532H123.95z M137.884,215.17
			c0,0-5.75-7.347-11.852-7.347h-6.19c-5.974,13.158-9.277,30.835-9.277,47.036c0,48.732,29.892,90.534,72.465,108.349
			L137.884,215.17z M330.96,196.354c2.251,10.682,1.782,23.638-2.609,37.885c-11.45,37.084-39.802,103.79-50.779,129.201
			c41.2-18.399,69.91-59.468,69.91-107.213C347.481,234.357,341.439,213.892,330.96,196.354z M231.416,296.482l-30.287,73.978
			c8.944,2.142,18.284,3.311,27.894,3.311c9.952,0,19.612-1.237,28.843-3.527L231.416,296.482z"/>
		<path class="shadow" opacity="0.1" d="M430.378,390.587c9.969-5.751,16.159-16.475,16.159-27.992V148.76
			c0-4.841-1.15-9.516-3.157-13.771L260.111,240.8c-19.238,11.104-31.089,31.628-31.089,53.833v207.205
			c5.669,0,11.265-1.495,16.169-4.328L430.378,390.587z"/>
		<path class="highlight" opacity="0.2" fill="#FFFFFF" d="M197.944,240.8c19.237,11.104,31.078,31.628,31.078,53.833
			c0-22.205,11.851-42.729,31.089-53.833L443.38,134.989c-2.772-5.853-7.226-10.888-13.002-14.218L245.192,13.85
			c-4.904-2.83-10.5-4.328-16.169-4.328c-5.659,0-11.255,1.499-16.159,4.328L27.676,120.771c-5.776,3.33-10.229,8.365-13.002,14.218
			L197.944,240.8z"/>
	</svg:svg>
</svg>
